<svg xmlns="http://www.w3.org/2000/svg" viewBox="0 0 390 104" role="img" aria-labelledby="desc">
  <title id="title">Aplicanza — IA aplicada para pymes.</title>
  <desc id="desc">Logo de Aplicanza con su descriptor comercial.</desc>
  <g aria-hidden="true">
    <path fill="#0B1F3A" d="M9 67 33.1 14.8a7.5 7.5 0 0 1 13.7 0L71 67H56.8L40 29.7 23.2 67H9Z"/>
    <path fill="#138A8A" d="M20 47h25v-8l17 13-17 13v-8H20V47Z"/>
    <circle cx="20" cy="52" r="4" fill="#2474E5"/>
    <path fill="#0B1F3A" d="M139.36 60h-8.35l-4.13-11.68h-18.05L104.86 60h-8.32l17.19-45.89h8.57Zm-14.5-17.89-6.36-18.3q-.29-.9-.61-2.88h-.13q-.29 1.82-.64 2.88l-6.3 18.3ZM152.38 55.17h-.12v19.9h-7.43V27.23h7.43v5.76h.12q3.81-6.53 11.14-6.53 6.24 0 9.73 4.39 3.49 4.38 3.49 11.77 0 8.2-3.94 13.12-3.94 4.93-10.75 4.93-6.27 0-9.67-5.5Zm-.19-12.93v4.06q0 3.59 2.29 6.08 2.29 2.5 5.81 2.5 4.13 0 6.48-3.22 2.35-3.21 2.35-8.97 0-4.83-2.19-7.57-2.19-2.74-5.94-2.74-3.97 0-6.38 2.82-2.42 2.82-2.42 7.04ZM191.78 60h-7.46V11.49h7.46ZM205.18 20.35q-1.82 0-3.12-1.18-1.29-1.19-1.29-3.01t1.29-3.04q1.3-1.22 3.12-1.22 1.89 0 3.2 1.22 1.32 1.22 1.32 3.04 0 1.73-1.32 2.96-1.31 1.23-3.2 1.23ZM208.86 60h-7.42V27.23h7.42ZM242.02 58.5q-3.94 2.27-9.32 2.27-7.29 0-11.77-4.56-4.48-4.56-4.48-11.83 0-8.09 4.81-13 4.82-4.92 12.88-4.92 4.48 0 7.91 1.57v6.91q-3.43-2.56-7.3-2.56-4.7 0-7.71 3.19-3.01 3.18-3.01 8.33 0 5.09 2.83 8.04 2.84 2.94 7.6 2.94 4 0 7.56-2.85ZM274.53 60h-7.2v-5.12h-.13q-3.39 5.89-9.95 5.89-4.83 0-7.57-2.63-2.74-2.62-2.74-6.94 0-9.28 10.69-10.82l9.73-1.37q0-7.01-6.66-7.01-5.85 0-10.56 4.03v-6.49q5.19-3.08 11.97-3.08 12.42 0 12.42 12.23Zm-7.17-16.1-6.88.96q-3.2.42-4.82 1.56-1.61 1.13-1.61 3.98 0 2.08 1.49 3.41 1.48 1.33 3.98 1.33 3.39 0 5.62-2.39 2.22-2.38 2.22-6ZM312.77 60h-7.43V41.54q0-9.19-6.49-9.19-3.39 0-5.6 2.55-2.21 2.54-2.21 6.41V60h-7.46V27.23h7.46v5.44h.13q3.68-6.21 10.62-6.21 5.35 0 8.16 3.48 2.82 3.47 2.82 10.03ZM346.02 30.34l-17.7 23.87h17.63V60h-28.03v-2.78L336 33.02h-16.35v-5.79h26.37ZM377.41 60h-7.2v-5.12h-.13q-3.39 5.89-9.95 5.89-4.83 0-7.57-2.63-2.74-2.62-2.74-6.94 0-9.28 10.69-10.82l9.73-1.37q0-7.01-6.66-7.01-5.85 0-10.56 4.03v-6.49q5.19-3.08 11.97-3.08 12.42 0 12.42 12.23Zm-7.17-16.1-6.88.96q-3.2.42-4.82 1.56-1.61 1.13-1.61 3.98 0 2.08 1.49 3.41 1.48 1.33 3.98 1.33 3.39 0 5.62-2.39 2.22-2.38 2.22-6Z"/>
    <text x="98" y="91" fill="#526275" font-family="Arial, sans-serif" font-size="13" letter-spacing="1.15">IA aplicada para pymes.</text>
  </g>
</svg>
